<mxfile modified="2019-11-13T23:35:49.999Z" host="www.draw.io" agent="Mozilla/5.0 (Windows NT 10.0; Win64; x64) AppleWebKit/537.36 (KHTML, like Gecko) Chrome/78.0.3904.97 Safari/537.36" etag="ugOuHZadsN046zPm82j9" version="12.2.6" type="github" pages="4">
  <diagram id="OGn8r4jzTpQwlox6dmga" name="Globale1">
    <mxGraphModel dx="1408" dy="699" grid="1" gridSize="10" guides="1" tooltips="1" connect="1" arrows="1" fold="1" page="1" pageScale="1" pageWidth="827" pageHeight="1169" math="0" shadow="0">
      <root>
        <mxCell id="0"/>
        <mxCell id="1" parent="0"/>
        <mxCell id="9qIaELTngVx0xao7WcT0-1" value="&lt;h2&gt;&lt;font face=&quot;Comic Sans MS&quot;&gt;Chaîne d&#39;Information&lt;/font&gt;&lt;/h2&gt;" style="ellipse;whiteSpace=wrap;html=1;fillColor=none;fontColor=#0000FF;strokeColor=#0000FF;strokeWidth=3;" parent="1" vertex="1">
          <mxGeometry x="120" y="30" width="230" height="130" as="geometry"/>
        </mxCell>
        <mxCell id="9qIaELTngVx0xao7WcT0-2" value="&lt;h2&gt;&lt;font face=&quot;Comic Sans MS&quot;&gt;Chaîne de Puissance&lt;/font&gt;&lt;/h2&gt;" style="ellipse;whiteSpace=wrap;html=1;fillColor=none;fontColor=#663300;strokeColor=#663300;strokeWidth=3;" parent="1" vertex="1">
          <mxGeometry x="218" y="130" width="230" height="130" as="geometry"/>
        </mxCell>
        <mxCell id="9qIaELTngVx0xao7WcT0-3" value="" style="endArrow=none;html=1;fontColor=#663300;endFill=0;strokeWidth=2;exitX=0.013;exitY=0.403;exitDx=0;exitDy=0;startArrow=openAsync;startFill=0;exitPerimeter=0;" parent="1" source="9qIaELTngVx0xao7WcT0-2" edge="1">
          <mxGeometry width="50" height="50" relative="1" as="geometry">
            <mxPoint x="170" y="280" as="sourcePoint"/>
            <mxPoint x="90" y="180" as="targetPoint"/>
            <Array as="points"/>
          </mxGeometry>
        </mxCell>
        <mxCell id="9qIaELTngVx0xao7WcT0-4" value="" style="endArrow=classic;html=1;strokeWidth=2;fontColor=#663300;entryX=0.022;entryY=0.669;entryDx=0;entryDy=0;entryPerimeter=0;shape=flexArrow;width=4.8;endSize=4.152;endWidth=12.88;" parent="1" target="9qIaELTngVx0xao7WcT0-2" edge="1">
          <mxGeometry width="50" height="50" relative="1" as="geometry">
            <mxPoint x="120" y="217" as="sourcePoint"/>
            <mxPoint x="90" y="280" as="targetPoint"/>
          </mxGeometry>
        </mxCell>
        <mxCell id="9qIaELTngVx0xao7WcT0-5" value="" style="endArrow=classic;html=1;strokeWidth=2;fontColor=#663300;entryX=0;entryY=0.5;entryDx=0;entryDy=0;" parent="1" target="9qIaELTngVx0xao7WcT0-1" edge="1">
          <mxGeometry width="50" height="50" relative="1" as="geometry">
            <mxPoint x="40" y="95" as="sourcePoint"/>
            <mxPoint x="90" y="280" as="targetPoint"/>
            <Array as="points">
              <mxPoint x="100" y="95"/>
            </Array>
          </mxGeometry>
        </mxCell>
        <mxCell id="9qIaELTngVx0xao7WcT0-6" value="" style="endArrow=classic;html=1;strokeWidth=2;fontColor=#663300;exitX=1;exitY=0.5;exitDx=0;exitDy=0;" parent="1" source="9qIaELTngVx0xao7WcT0-1" edge="1">
          <mxGeometry width="50" height="50" relative="1" as="geometry">
            <mxPoint x="350" y="100" as="sourcePoint"/>
            <mxPoint x="430" y="95" as="targetPoint"/>
          </mxGeometry>
        </mxCell>
        <mxCell id="9qIaELTngVx0xao7WcT0-7" value="Données entrantes" style="text;html=1;strokeColor=none;fillColor=none;align=center;verticalAlign=middle;whiteSpace=wrap;rounded=0;fontColor=#663300;fontFamily=Comic Sans MS;" parent="1" vertex="1">
          <mxGeometry x="40" y="60" width="40" height="20" as="geometry"/>
        </mxCell>
        <mxCell id="9qIaELTngVx0xao7WcT0-8" value="Données sortantes" style="text;html=1;strokeColor=none;fillColor=none;align=center;verticalAlign=middle;whiteSpace=wrap;rounded=0;fontColor=#663300;fontFamily=Comic Sans MS;" parent="1" vertex="1">
          <mxGeometry x="380" y="45" width="40" height="50" as="geometry"/>
        </mxCell>
        <mxCell id="9qIaELTngVx0xao7WcT0-9" value="" style="endArrow=none;html=1;fontColor=#663300;endFill=0;strokeWidth=2;startArrow=openAsync;startFill=0;entryX=0.984;entryY=0.392;entryDx=0;entryDy=0;entryPerimeter=0;" parent="1" target="9qIaELTngVx0xao7WcT0-2" edge="1">
          <mxGeometry width="50" height="50" relative="1" as="geometry">
            <mxPoint x="580" y="181" as="sourcePoint"/>
            <mxPoint x="448" y="180" as="targetPoint"/>
            <Array as="points"/>
          </mxGeometry>
        </mxCell>
        <mxCell id="9qIaELTngVx0xao7WcT0-10" value="" style="endArrow=classic;html=1;strokeWidth=2;fontColor=#663300;shape=flexArrow;width=4.8;endSize=4.152;endWidth=12.88;" parent="1" edge="1">
          <mxGeometry width="50" height="50" relative="1" as="geometry">
            <mxPoint x="440" y="220" as="sourcePoint"/>
            <mxPoint x="540" y="220" as="targetPoint"/>
          </mxGeometry>
        </mxCell>
        <mxCell id="9qIaELTngVx0xao7WcT0-11" value="Energies entrantes" style="text;html=1;strokeColor=none;fillColor=none;align=center;verticalAlign=middle;whiteSpace=wrap;rounded=0;fontColor=#663300;fontFamily=Comic Sans MS;" parent="1" vertex="1">
          <mxGeometry x="70" y="150" width="40" height="20" as="geometry"/>
        </mxCell>
        <mxCell id="9qIaELTngVx0xao7WcT0-12" value="Matières entrantes" style="text;html=1;strokeColor=none;fillColor=none;align=center;verticalAlign=middle;whiteSpace=wrap;rounded=0;fontColor=#663300;fontFamily=Comic Sans MS;" parent="1" vertex="1">
          <mxGeometry x="120" y="230" width="40" height="20" as="geometry"/>
        </mxCell>
        <mxCell id="9qIaELTngVx0xao7WcT0-14" value="Energies sortantes" style="text;html=1;strokeColor=none;fillColor=none;align=center;verticalAlign=middle;whiteSpace=wrap;rounded=0;fontColor=#663300;fontFamily=Comic Sans MS;" parent="1" vertex="1">
          <mxGeometry x="530" y="150" width="40" height="20" as="geometry"/>
        </mxCell>
        <mxCell id="9qIaELTngVx0xao7WcT0-15" value="Matières sortantes" style="text;html=1;strokeColor=none;fillColor=none;align=center;verticalAlign=middle;whiteSpace=wrap;rounded=0;fontColor=#663300;fontFamily=Comic Sans MS;" parent="1" vertex="1">
          <mxGeometry x="480" y="230" width="40" height="25" as="geometry"/>
        </mxCell>
      </root>
    </mxGraphModel>
  </diagram>
  <diagram id="737MfzJ7YNxhISA-3AJK" name="Globale2">
    <mxGraphModel dx="670" dy="333" grid="1" gridSize="10" guides="1" tooltips="1" connect="1" arrows="1" fold="1" page="1" pageScale="1" pageWidth="827" pageHeight="1169" math="0" shadow="0">
      <root>
        <mxCell id="GOcAIxszMN7KE-Up-0eX-0"/>
        <mxCell id="GOcAIxszMN7KE-Up-0eX-1" parent="GOcAIxszMN7KE-Up-0eX-0"/>
        <mxCell id="GOcAIxszMN7KE-Up-0eX-30" value="" style="rounded=0;whiteSpace=wrap;html=1;strokeColor=#663300;strokeWidth=1;fillColor=none;fontFamily=Comic Sans MS;fontColor=#663300;dashed=1;" parent="GOcAIxszMN7KE-Up-0eX-1" vertex="1">
          <mxGeometry x="140" y="40" width="360" height="240" as="geometry"/>
        </mxCell>
        <mxCell id="GOcAIxszMN7KE-Up-0eX-18" style="edgeStyle=orthogonalEdgeStyle;rounded=0;orthogonalLoop=1;jettySize=auto;html=1;exitX=1;exitY=0.75;exitDx=0;exitDy=0;startArrow=none;startFill=0;endArrow=classic;endFill=1;strokeWidth=1;fontFamily=Comic Sans MS;fontColor=#663300;entryX=0.5;entryY=0;entryDx=0;entryDy=0;" parent="GOcAIxszMN7KE-Up-0eX-1" source="GOcAIxszMN7KE-Up-0eX-2" target="GOcAIxszMN7KE-Up-0eX-3" edge="1">
          <mxGeometry relative="1" as="geometry">
            <mxPoint x="360" y="150" as="targetPoint"/>
          </mxGeometry>
        </mxCell>
        <mxCell id="GOcAIxszMN7KE-Up-0eX-29" value="&lt;font style=&quot;font-size: 10px&quot;&gt;Ordres&lt;/font&gt;" style="text;html=1;resizable=0;points=[];align=center;verticalAlign=middle;labelBackgroundColor=#ffffff;fontFamily=Comic Sans MS;fontColor=#663300;" parent="GOcAIxszMN7KE-Up-0eX-18" vertex="1" connectable="0">
          <mxGeometry x="-0.1934" y="-22" relative="1" as="geometry">
            <mxPoint x="22" y="22" as="offset"/>
          </mxGeometry>
        </mxCell>
        <mxCell id="GOcAIxszMN7KE-Up-0eX-27" style="edgeStyle=orthogonalEdgeStyle;rounded=0;orthogonalLoop=1;jettySize=auto;html=1;exitX=0.5;exitY=0;exitDx=0;exitDy=0;startArrow=classic;startFill=1;endArrow=oval;endFill=1;strokeWidth=1;fontFamily=Comic Sans MS;fontColor=#663300;labelPosition=center;verticalLabelPosition=top;align=center;verticalAlign=bottom;" parent="GOcAIxszMN7KE-Up-0eX-1" source="GOcAIxszMN7KE-Up-0eX-2" edge="1">
          <mxGeometry relative="1" as="geometry">
            <mxPoint x="480" y="230" as="targetPoint"/>
          </mxGeometry>
        </mxCell>
        <mxCell id="GOcAIxszMN7KE-Up-0eX-28" value="&lt;font style=&quot;font-size: 10px&quot;&gt;Données internes - Comptes rendus&lt;/font&gt;" style="text;html=1;resizable=0;points=[];align=center;verticalAlign=middle;labelBackgroundColor=#ffffff;fontFamily=Comic Sans MS;fontColor=#663300;" parent="GOcAIxszMN7KE-Up-0eX-27" vertex="1" connectable="0">
          <mxGeometry x="-0.2703" y="1" relative="1" as="geometry">
            <mxPoint x="-17" y="-8.5" as="offset"/>
          </mxGeometry>
        </mxCell>
        <mxCell id="GOcAIxszMN7KE-Up-0eX-2" value="&lt;font style=&quot;font-size: 18px&quot;&gt;Chaîne&lt;br&gt;d&#39;information&lt;/font&gt;" style="rounded=1;whiteSpace=wrap;html=1;strokeColor=#6c8ebf;strokeWidth=1;fillColor=#dae8fc;fontFamily=Comic Sans MS;" parent="GOcAIxszMN7KE-Up-0eX-1" vertex="1">
          <mxGeometry x="160" y="80" width="160" height="60" as="geometry"/>
        </mxCell>
        <mxCell id="GOcAIxszMN7KE-Up-0eX-19" style="edgeStyle=orthogonalEdgeStyle;rounded=0;orthogonalLoop=1;jettySize=auto;html=1;exitX=1;exitY=0.5;exitDx=0;exitDy=0;startArrow=none;startFill=0;endArrow=classic;endFill=1;strokeWidth=1;fontFamily=Comic Sans MS;fontColor=#663300;" parent="GOcAIxszMN7KE-Up-0eX-1" source="GOcAIxszMN7KE-Up-0eX-3" target="GOcAIxszMN7KE-Up-0eX-20" edge="1">
          <mxGeometry relative="1" as="geometry">
            <mxPoint x="520" y="230" as="targetPoint"/>
          </mxGeometry>
        </mxCell>
        <mxCell id="GOcAIxszMN7KE-Up-0eX-3" value="&lt;font style=&quot;font-size: 18px&quot;&gt;Chaîne&lt;br&gt;de Puissance&lt;/font&gt;" style="rounded=1;whiteSpace=wrap;html=1;strokeColor=#82b366;strokeWidth=1;fillColor=#d5e8d4;fontFamily=Comic Sans MS;" parent="GOcAIxszMN7KE-Up-0eX-1" vertex="1">
          <mxGeometry x="290" y="200" width="160" height="60" as="geometry"/>
        </mxCell>
        <mxCell id="GOcAIxszMN7KE-Up-0eX-7" value="" style="endArrow=classic;html=1;strokeWidth=1;fontFamily=Comic Sans MS;fontColor=#663300;entryX=0;entryY=0.5;entryDx=0;entryDy=0;" parent="GOcAIxszMN7KE-Up-0eX-1" target="GOcAIxszMN7KE-Up-0eX-2" edge="1">
          <mxGeometry width="50" height="50" relative="1" as="geometry">
            <mxPoint x="30" y="110" as="sourcePoint"/>
            <mxPoint x="160" y="100" as="targetPoint"/>
            <Array as="points">
              <mxPoint x="120" y="110"/>
            </Array>
          </mxGeometry>
        </mxCell>
        <mxCell id="GOcAIxszMN7KE-Up-0eX-10" value="&lt;font style=&quot;font-size: 10px&quot;&gt;Données entrantes&lt;/font&gt;" style="text;html=1;resizable=0;points=[];align=center;verticalAlign=bottom;labelBackgroundColor=#ffffff;fontFamily=Comic Sans MS;fontColor=#663300;labelPosition=center;verticalLabelPosition=top;" parent="GOcAIxszMN7KE-Up-0eX-7" vertex="1" connectable="0">
          <mxGeometry x="-0.5224" relative="1" as="geometry">
            <mxPoint x="19" as="offset"/>
          </mxGeometry>
        </mxCell>
        <mxCell id="GOcAIxszMN7KE-Up-0eX-16" value="" style="endArrow=classic;html=1;strokeWidth=1;fontFamily=Comic Sans MS;fontColor=#663300;entryX=0;entryY=0.5;entryDx=0;entryDy=0;" parent="GOcAIxszMN7KE-Up-0eX-1" target="GOcAIxszMN7KE-Up-0eX-3" edge="1">
          <mxGeometry width="50" height="50" relative="1" as="geometry">
            <mxPoint x="30" y="230" as="sourcePoint"/>
            <mxPoint x="161.76" y="229.71999999999997" as="targetPoint"/>
          </mxGeometry>
        </mxCell>
        <mxCell id="GOcAIxszMN7KE-Up-0eX-17" value="&lt;font style=&quot;font-size: 10px&quot;&gt;Source d&#39;énergie&lt;/font&gt;" style="text;html=1;resizable=0;points=[];align=center;verticalAlign=bottom;labelBackgroundColor=#ffffff;fontFamily=Comic Sans MS;fontColor=#663300;labelPosition=center;verticalLabelPosition=top;" parent="GOcAIxszMN7KE-Up-0eX-16" vertex="1" connectable="0">
          <mxGeometry x="-0.5224" relative="1" as="geometry">
            <mxPoint x="-12" as="offset"/>
          </mxGeometry>
        </mxCell>
        <mxCell id="GOcAIxszMN7KE-Up-0eX-20" value="Action" style="rounded=0;whiteSpace=wrap;html=1;strokeColor=#b85450;strokeWidth=1;fillColor=#f8cecc;fontFamily=Comic Sans MS;" parent="GOcAIxszMN7KE-Up-0eX-1" vertex="1">
          <mxGeometry x="520" y="200" width="60" height="60" as="geometry"/>
        </mxCell>
        <mxCell id="GOcAIxszMN7KE-Up-0eX-22" value="" style="shape=flexArrow;endArrow=none;html=1;strokeWidth=1;fontFamily=Comic Sans MS;fontColor=#663300;endFill=0;startArrow=block;fillColor=#fff2cc;strokeColor=#d6b656;" parent="GOcAIxszMN7KE-Up-0eX-1" source="GOcAIxszMN7KE-Up-0eX-20" edge="1">
          <mxGeometry width="50" height="50" relative="1" as="geometry">
            <mxPoint x="550" y="179.28932188134524" as="sourcePoint"/>
            <mxPoint x="550" y="160" as="targetPoint"/>
          </mxGeometry>
        </mxCell>
        <mxCell id="GOcAIxszMN7KE-Up-0eX-23" value="" style="shape=flexArrow;endArrow=none;html=1;strokeWidth=1;fontFamily=Comic Sans MS;fontColor=#663300;endFill=0;startArrow=block;fillColor=#ffe6cc;strokeColor=#d79b00;" parent="GOcAIxszMN7KE-Up-0eX-1" edge="1">
          <mxGeometry width="50" height="50" relative="1" as="geometry">
            <mxPoint x="550" y="300" as="sourcePoint"/>
            <mxPoint x="550" y="260" as="targetPoint"/>
          </mxGeometry>
        </mxCell>
        <mxCell id="GOcAIxszMN7KE-Up-0eX-24" value="Matière&lt;br&gt;d&#39;Oeuvre&lt;br&gt;Sortante" style="text;html=1;strokeColor=none;fillColor=none;align=center;verticalAlign=middle;whiteSpace=wrap;rounded=0;fontFamily=Comic Sans MS;fontColor=#663300;" parent="GOcAIxszMN7KE-Up-0eX-1" vertex="1">
          <mxGeometry x="530" y="310" width="40" height="20" as="geometry"/>
        </mxCell>
        <mxCell id="GOcAIxszMN7KE-Up-0eX-25" value="Matière&lt;br&gt;d&#39;Oeuvre&lt;br&gt;Entrante" style="text;html=1;fontFamily=Comic Sans MS;fontColor=#663300;" parent="GOcAIxszMN7KE-Up-0eX-1" vertex="1">
          <mxGeometry x="520" y="110" width="60" height="50" as="geometry"/>
        </mxCell>
        <mxCell id="GOcAIxszMN7KE-Up-0eX-31" value="" style="endArrow=classic;html=1;strokeWidth=1;fontFamily=Comic Sans MS;fontColor=#663300;exitX=1;exitY=0.25;exitDx=0;exitDy=0;" parent="GOcAIxszMN7KE-Up-0eX-1" source="GOcAIxszMN7KE-Up-0eX-2" edge="1">
          <mxGeometry width="50" height="50" relative="1" as="geometry">
            <mxPoint x="10" y="420" as="sourcePoint"/>
            <mxPoint x="620" y="95" as="targetPoint"/>
          </mxGeometry>
        </mxCell>
        <mxCell id="GOcAIxszMN7KE-Up-0eX-32" value="&lt;font style=&quot;font-size: 10px&quot;&gt;Données sortantes&lt;/font&gt;" style="text;html=1;resizable=0;points=[];align=center;verticalAlign=middle;labelBackgroundColor=#ffffff;fontFamily=Comic Sans MS;fontColor=#663300;" parent="GOcAIxszMN7KE-Up-0eX-31" vertex="1" connectable="0">
          <mxGeometry x="0.883" relative="1" as="geometry">
            <mxPoint x="-46.5" y="-10" as="offset"/>
          </mxGeometry>
        </mxCell>
        <mxCell id="ds_Q6bR5sXUwFFN-diDU-0" value="" style="endArrow=none;html=1;strokeWidth=2;fontFamily=Comic Sans MS;fontColor=#663300;endFill=0;startArrow=openAsync;startFill=0;strokeColor=#FF0000;curved=1;" edge="1" parent="GOcAIxszMN7KE-Up-0eX-1">
          <mxGeometry width="50" height="50" relative="1" as="geometry">
            <mxPoint x="618" y="228" as="sourcePoint"/>
            <mxPoint x="580" y="231" as="targetPoint"/>
            <Array as="points">
              <mxPoint x="608" y="227"/>
              <mxPoint x="598" y="237"/>
              <mxPoint x="588" y="227"/>
              <mxPoint x="580" y="231"/>
            </Array>
          </mxGeometry>
        </mxCell>
        <mxCell id="ds_Q6bR5sXUwFFN-diDU-1" value="&lt;font style=&quot;font-size: 10px&quot;&gt;Pertes&lt;/font&gt;" style="text;html=1;resizable=0;points=[];align=center;verticalAlign=middle;labelBackgroundColor=#ffffff;fontFamily=Comic Sans MS;fontColor=#663300;" vertex="1" connectable="0" parent="GOcAIxszMN7KE-Up-0eX-1">
          <mxGeometry x="678.1213592233009" y="206.9514563106796" as="geometry">
            <mxPoint x="-76.5" y="12" as="offset"/>
          </mxGeometry>
        </mxCell>
      </root>
    </mxGraphModel>
  </diagram>
  <diagram id="6lb5na1x12W4No6WLUv4" name="Globale3">
    <mxGraphModel dx="805" dy="399" grid="1" gridSize="10" guides="1" tooltips="1" connect="1" arrows="1" fold="1" page="1" pageScale="1" pageWidth="827" pageHeight="1169" math="0" shadow="0">
      <root>
        <mxCell id="uo1xwZsdbgLjzLTafAWz-0"/>
        <mxCell id="uo1xwZsdbgLjzLTafAWz-1" parent="uo1xwZsdbgLjzLTafAWz-0"/>
        <mxCell id="j8zY-SJ1poG4v1MKxDtm-0" value="" style="rounded=0;whiteSpace=wrap;html=1;strokeColor=#663300;strokeWidth=1;fillColor=none;fontFamily=Comic Sans MS;fontColor=#663300;dashed=1;" parent="uo1xwZsdbgLjzLTafAWz-1" vertex="1">
          <mxGeometry x="130" y="40" width="480" height="280" as="geometry"/>
        </mxCell>
        <mxCell id="j8zY-SJ1poG4v1MKxDtm-5" value="&lt;br&gt;&lt;span&gt;&lt;br&gt;&lt;br&gt;&lt;span style=&quot;background-color: rgb(255 , 255 , 255)&quot;&gt;&lt;br&gt;&amp;nbsp;Chaîne&amp;nbsp;d&#39;Information&amp;nbsp;&lt;/span&gt;&lt;br&gt;&lt;/span&gt;" style="rounded=1;whiteSpace=wrap;html=1;strokeColor=#6c8ebf;strokeWidth=1;fillColor=#dae8fc;fontFamily=Comic Sans MS;" parent="uo1xwZsdbgLjzLTafAWz-1" vertex="1">
          <mxGeometry x="140" y="60" width="360" height="90" as="geometry"/>
        </mxCell>
        <mxCell id="j8zY-SJ1poG4v1MKxDtm-7" value="&lt;br&gt;&lt;br&gt;&lt;br&gt;&lt;br&gt;&lt;span style=&quot;background-color: rgb(255 , 255 , 255)&quot;&gt;&amp;nbsp;Chaîne&amp;nbsp;de Puissance&amp;nbsp;&lt;/span&gt;" style="rounded=1;whiteSpace=wrap;html=1;strokeColor=#82b366;strokeWidth=1;fillColor=#d5e8d4;fontFamily=Comic Sans MS;" parent="uo1xwZsdbgLjzLTafAWz-1" vertex="1">
          <mxGeometry x="140" y="213" width="460" height="90" as="geometry"/>
        </mxCell>
        <mxCell id="j8zY-SJ1poG4v1MKxDtm-8" value="" style="endArrow=open;html=1;strokeWidth=2;fontFamily=Comic Sans MS;fontColor=#663300;entryX=0;entryY=0.5;entryDx=0;entryDy=0;endFill=0;strokeColor=#0000CC;" parent="uo1xwZsdbgLjzLTafAWz-1" edge="1">
          <mxGeometry width="50" height="50" relative="1" as="geometry">
            <mxPoint x="30" y="91" as="sourcePoint"/>
            <mxPoint x="160" y="91" as="targetPoint"/>
            <Array as="points">
              <mxPoint x="100" y="91"/>
            </Array>
          </mxGeometry>
        </mxCell>
        <mxCell id="j8zY-SJ1poG4v1MKxDtm-9" value="&lt;span style=&quot;font-size: 10px&quot;&gt;Données issues&lt;br&gt;d&#39;autres systèmes&lt;br&gt;et d&#39;interfaces H/M&lt;br&gt;&lt;/span&gt;" style="text;html=1;resizable=0;points=[];align=center;verticalAlign=bottom;labelBackgroundColor=#ffffff;fontFamily=Comic Sans MS;fontColor=#663300;labelPosition=center;verticalLabelPosition=top;" parent="j8zY-SJ1poG4v1MKxDtm-8" vertex="1" connectable="0">
          <mxGeometry x="-0.5224" relative="1" as="geometry">
            <mxPoint x="15.5" y="-0.5" as="offset"/>
          </mxGeometry>
        </mxCell>
        <mxCell id="j8zY-SJ1poG4v1MKxDtm-10" value="" style="endArrow=none;html=1;strokeWidth=2;fontFamily=Comic Sans MS;fontColor=#663300;entryX=0;entryY=0.5;entryDx=0;entryDy=0;endFill=0;exitX=0;exitY=0.5;exitDx=0;exitDy=0;startArrow=openAsync;startFill=0;strokeColor=#FF0000;" parent="uo1xwZsdbgLjzLTafAWz-1" source="j8zY-SJ1poG4v1MKxDtm-19" edge="1">
          <mxGeometry width="50" height="50" relative="1" as="geometry">
            <mxPoint x="110" y="303" as="sourcePoint"/>
            <mxPoint x="30" y="253" as="targetPoint"/>
          </mxGeometry>
        </mxCell>
        <mxCell id="j8zY-SJ1poG4v1MKxDtm-11" value="&lt;font style=&quot;font-size: 10px&quot;&gt;Source d&#39;énergie&lt;/font&gt;" style="text;html=1;resizable=0;points=[];align=center;verticalAlign=bottom;labelBackgroundColor=#ffffff;fontFamily=Comic Sans MS;fontColor=#663300;labelPosition=center;verticalLabelPosition=top;" parent="j8zY-SJ1poG4v1MKxDtm-10" vertex="1" connectable="0">
          <mxGeometry x="-0.5224" relative="1" as="geometry">
            <mxPoint x="-56.5" y="-2" as="offset"/>
          </mxGeometry>
        </mxCell>
        <mxCell id="j8zY-SJ1poG4v1MKxDtm-12" value="Action" style="rounded=0;whiteSpace=wrap;html=1;strokeColor=#b85450;strokeWidth=1;fillColor=#f8cecc;fontFamily=Comic Sans MS;" parent="uo1xwZsdbgLjzLTafAWz-1" vertex="1">
          <mxGeometry x="622" y="223" width="60" height="60" as="geometry"/>
        </mxCell>
        <mxCell id="j8zY-SJ1poG4v1MKxDtm-13" value="" style="shape=flexArrow;endArrow=none;html=1;strokeWidth=1;fontFamily=Comic Sans MS;fontColor=#663300;endFill=0;startArrow=block;fillColor=#fff2cc;strokeColor=#d6b656;" parent="uo1xwZsdbgLjzLTafAWz-1" source="j8zY-SJ1poG4v1MKxDtm-12" edge="1">
          <mxGeometry width="50" height="50" relative="1" as="geometry">
            <mxPoint x="652" y="202.28932188134524" as="sourcePoint"/>
            <mxPoint x="652" y="183" as="targetPoint"/>
          </mxGeometry>
        </mxCell>
        <mxCell id="j8zY-SJ1poG4v1MKxDtm-14" value="" style="shape=flexArrow;endArrow=none;html=1;strokeWidth=1;fontFamily=Comic Sans MS;fontColor=#663300;endFill=0;startArrow=block;fillColor=#ffe6cc;strokeColor=#d79b00;" parent="uo1xwZsdbgLjzLTafAWz-1" edge="1">
          <mxGeometry width="50" height="50" relative="1" as="geometry">
            <mxPoint x="652" y="322.9999999999999" as="sourcePoint"/>
            <mxPoint x="652" y="282.9999999999999" as="targetPoint"/>
          </mxGeometry>
        </mxCell>
        <mxCell id="j8zY-SJ1poG4v1MKxDtm-15" value="Matière&lt;br&gt;d&#39;Oeuvre&lt;br&gt;Sortante" style="text;html=1;strokeColor=none;fillColor=none;align=center;verticalAlign=middle;whiteSpace=wrap;rounded=0;fontFamily=Comic Sans MS;fontColor=#663300;" parent="uo1xwZsdbgLjzLTafAWz-1" vertex="1">
          <mxGeometry x="632" y="333" width="40" height="20" as="geometry"/>
        </mxCell>
        <mxCell id="j8zY-SJ1poG4v1MKxDtm-16" value="Matière&lt;br&gt;d&#39;Oeuvre&lt;br&gt;Entrante" style="text;html=1;fontFamily=Comic Sans MS;fontColor=#663300;" parent="uo1xwZsdbgLjzLTafAWz-1" vertex="1">
          <mxGeometry x="622" y="133" width="60" height="50" as="geometry"/>
        </mxCell>
        <mxCell id="j8zY-SJ1poG4v1MKxDtm-17" value="" style="endArrow=open;html=1;strokeWidth=2;fontFamily=Comic Sans MS;fontColor=#663300;exitX=1;exitY=0.25;exitDx=0;exitDy=0;endFill=0;strokeColor=#0000CC;" parent="uo1xwZsdbgLjzLTafAWz-1" source="j8zY-SJ1poG4v1MKxDtm-36" edge="1">
          <mxGeometry width="50" height="50" relative="1" as="geometry">
            <mxPoint x="10" y="420" as="sourcePoint"/>
            <mxPoint x="720" y="90" as="targetPoint"/>
            <Array as="points">
              <mxPoint x="600" y="90"/>
            </Array>
          </mxGeometry>
        </mxCell>
        <mxCell id="j8zY-SJ1poG4v1MKxDtm-18" value="&lt;font style=&quot;font-size: 10px&quot;&gt;Données destinées&lt;br&gt;&amp;nbsp;à d&#39;autres systèmes&lt;br&gt;&amp;nbsp;et aux interfaces H/M&lt;/font&gt;" style="text;html=1;resizable=0;points=[];align=center;verticalAlign=middle;labelBackgroundColor=#ffffff;fontFamily=Comic Sans MS;fontColor=#663300;" parent="j8zY-SJ1poG4v1MKxDtm-17" vertex="1" connectable="0">
          <mxGeometry x="0.883" relative="1" as="geometry">
            <mxPoint x="-38.5" y="-28" as="offset"/>
          </mxGeometry>
        </mxCell>
        <mxCell id="j8zY-SJ1poG4v1MKxDtm-19" value="&lt;b&gt;ALIMENTER&lt;/b&gt;" style="rounded=0;whiteSpace=wrap;html=1;strokeColor=#d79b00;strokeWidth=1;fillColor=#ffe6cc;fontFamily=Comic Sans MS;" parent="uo1xwZsdbgLjzLTafAWz-1" vertex="1">
          <mxGeometry x="160" y="233" width="90" height="40" as="geometry"/>
        </mxCell>
        <mxCell id="j8zY-SJ1poG4v1MKxDtm-21" value="" style="endArrow=none;html=1;strokeWidth=2;fontFamily=Comic Sans MS;fontColor=#663300;endFill=0;startArrow=openAsync;startFill=0;exitX=0;exitY=0.5;exitDx=0;exitDy=0;entryX=1;entryY=0.5;entryDx=0;entryDy=0;strokeColor=#FF0000;" parent="uo1xwZsdbgLjzLTafAWz-1" source="j8zY-SJ1poG4v1MKxDtm-23" target="j8zY-SJ1poG4v1MKxDtm-19" edge="1">
          <mxGeometry width="50" height="50" relative="1" as="geometry">
            <mxPoint x="280" y="253" as="sourcePoint"/>
            <mxPoint x="250" y="252.5" as="targetPoint"/>
            <Array as="points">
              <mxPoint x="260" y="253"/>
            </Array>
          </mxGeometry>
        </mxCell>
        <mxCell id="j8zY-SJ1poG4v1MKxDtm-23" value="&lt;b&gt;DISTRIBUER&lt;/b&gt;" style="rounded=0;whiteSpace=wrap;html=1;strokeColor=#d79b00;strokeWidth=1;fillColor=#ffe6cc;fontFamily=Comic Sans MS;" parent="uo1xwZsdbgLjzLTafAWz-1" vertex="1">
          <mxGeometry x="270" y="233" width="90" height="40" as="geometry"/>
        </mxCell>
        <mxCell id="j8zY-SJ1poG4v1MKxDtm-26" value="&lt;b&gt;CONVERTIR&lt;/b&gt;" style="rounded=0;whiteSpace=wrap;html=1;strokeColor=#d79b00;strokeWidth=1;fillColor=#ffe6cc;fontFamily=Comic Sans MS;" parent="uo1xwZsdbgLjzLTafAWz-1" vertex="1">
          <mxGeometry x="380" y="233" width="90" height="40" as="geometry"/>
        </mxCell>
        <mxCell id="j8zY-SJ1poG4v1MKxDtm-28" value="&lt;b&gt;TRANSMETTRE&lt;/b&gt;" style="rounded=0;whiteSpace=wrap;html=1;strokeColor=#d79b00;strokeWidth=1;fillColor=#ffe6cc;fontFamily=Comic Sans MS;" parent="uo1xwZsdbgLjzLTafAWz-1" vertex="1">
          <mxGeometry x="490" y="233" width="100" height="40" as="geometry"/>
        </mxCell>
        <mxCell id="j8zY-SJ1poG4v1MKxDtm-29" value="" style="endArrow=none;html=1;strokeWidth=2;fontFamily=Comic Sans MS;fontColor=#663300;endFill=0;startArrow=openAsync;startFill=0;exitX=0;exitY=0.5;exitDx=0;exitDy=0;entryX=1;entryY=0.5;entryDx=0;entryDy=0;strokeColor=#FF0000;" parent="uo1xwZsdbgLjzLTafAWz-1" edge="1">
          <mxGeometry width="50" height="50" relative="1" as="geometry">
            <mxPoint x="380" y="253" as="sourcePoint"/>
            <mxPoint x="360" y="253" as="targetPoint"/>
            <Array as="points">
              <mxPoint x="370" y="253"/>
            </Array>
          </mxGeometry>
        </mxCell>
        <mxCell id="j8zY-SJ1poG4v1MKxDtm-30" value="" style="endArrow=none;html=1;strokeWidth=2;fontFamily=Comic Sans MS;fontColor=#663300;endFill=0;startArrow=openAsync;startFill=0;exitX=0;exitY=0.5;exitDx=0;exitDy=0;entryX=1;entryY=0.5;entryDx=0;entryDy=0;strokeColor=#FF0000;" parent="uo1xwZsdbgLjzLTafAWz-1" edge="1">
          <mxGeometry width="50" height="50" relative="1" as="geometry">
            <mxPoint x="490" y="253" as="sourcePoint"/>
            <mxPoint x="470" y="253" as="targetPoint"/>
            <Array as="points">
              <mxPoint x="480" y="253"/>
            </Array>
          </mxGeometry>
        </mxCell>
        <mxCell id="j8zY-SJ1poG4v1MKxDtm-31" value="" style="endArrow=none;html=1;strokeWidth=2;fontFamily=Comic Sans MS;fontColor=#663300;endFill=0;startArrow=openAsync;startFill=0;exitX=0;exitY=0.5;exitDx=0;exitDy=0;strokeColor=#FF0000;" parent="uo1xwZsdbgLjzLTafAWz-1" source="j8zY-SJ1poG4v1MKxDtm-12" edge="1">
          <mxGeometry width="50" height="50" relative="1" as="geometry">
            <mxPoint x="600" y="253" as="sourcePoint"/>
            <mxPoint x="590" y="253" as="targetPoint"/>
            <Array as="points">
              <mxPoint x="590" y="253"/>
            </Array>
          </mxGeometry>
        </mxCell>
        <mxCell id="j8zY-SJ1poG4v1MKxDtm-1" style="edgeStyle=orthogonalEdgeStyle;rounded=0;orthogonalLoop=1;jettySize=auto;html=1;exitX=1;exitY=0.75;exitDx=0;exitDy=0;startArrow=oval;startFill=1;endArrow=open;endFill=0;strokeWidth=2;fontFamily=Comic Sans MS;fontColor=#663300;strokeColor=#FF8000;" parent="uo1xwZsdbgLjzLTafAWz-1" source="j8zY-SJ1poG4v1MKxDtm-36" target="j8zY-SJ1poG4v1MKxDtm-23" edge="1">
          <mxGeometry relative="1" as="geometry">
            <mxPoint x="360" y="150" as="targetPoint"/>
            <Array as="points">
              <mxPoint x="490" y="110"/>
              <mxPoint x="490" y="200"/>
              <mxPoint x="315" y="200"/>
            </Array>
          </mxGeometry>
        </mxCell>
        <mxCell id="j8zY-SJ1poG4v1MKxDtm-2" value="&lt;font style=&quot;font-size: 10px&quot;&gt;Ordres&lt;/font&gt;" style="text;html=1;resizable=0;points=[];align=center;verticalAlign=middle;labelBackgroundColor=#ffffff;fontFamily=Comic Sans MS;fontColor=#663300;" parent="j8zY-SJ1poG4v1MKxDtm-1" vertex="1" connectable="0">
          <mxGeometry x="-0.1934" y="-22" relative="1" as="geometry">
            <mxPoint x="-76.5" y="12" as="offset"/>
          </mxGeometry>
        </mxCell>
        <mxCell id="j8zY-SJ1poG4v1MKxDtm-32" value="&lt;b&gt;ACQUERIR&lt;/b&gt;" style="rounded=0;whiteSpace=wrap;html=1;strokeColor=#d79b00;strokeWidth=1;fillColor=#ffe6cc;fontFamily=Comic Sans MS;" parent="uo1xwZsdbgLjzLTafAWz-1" vertex="1">
          <mxGeometry x="160" y="80" width="90" height="40" as="geometry"/>
        </mxCell>
        <mxCell id="j8zY-SJ1poG4v1MKxDtm-34" value="&lt;b&gt;TRAITER&lt;/b&gt;" style="rounded=0;whiteSpace=wrap;html=1;strokeColor=#d79b00;strokeWidth=1;fillColor=#ffe6cc;fontFamily=Comic Sans MS;" parent="uo1xwZsdbgLjzLTafAWz-1" vertex="1">
          <mxGeometry x="270" y="80" width="80" height="40" as="geometry"/>
        </mxCell>
        <mxCell id="j8zY-SJ1poG4v1MKxDtm-36" value="&lt;b&gt;COMMUNIQUER&lt;/b&gt;" style="rounded=0;whiteSpace=wrap;html=1;strokeColor=#d79b00;strokeWidth=1;fillColor=#ffe6cc;fontFamily=Comic Sans MS;" parent="uo1xwZsdbgLjzLTafAWz-1" vertex="1">
          <mxGeometry x="370" y="80" width="110" height="40" as="geometry"/>
        </mxCell>
        <mxCell id="j8zY-SJ1poG4v1MKxDtm-3" style="edgeStyle=orthogonalEdgeStyle;rounded=0;orthogonalLoop=1;jettySize=auto;html=1;exitX=0;exitY=0.75;exitDx=0;exitDy=0;startArrow=open;startFill=0;endArrow=oval;endFill=1;strokeWidth=2;fontFamily=Comic Sans MS;fontColor=#663300;labelPosition=center;verticalLabelPosition=top;align=center;verticalAlign=bottom;strokeColor=#009900;" parent="uo1xwZsdbgLjzLTafAWz-1" source="j8zY-SJ1poG4v1MKxDtm-32" edge="1">
          <mxGeometry relative="1" as="geometry">
            <mxPoint x="537" y="210" as="targetPoint"/>
            <mxPoint x="157" y="110" as="sourcePoint"/>
            <Array as="points">
              <mxPoint x="147" y="110"/>
              <mxPoint x="147" y="170"/>
              <mxPoint x="537" y="170"/>
            </Array>
          </mxGeometry>
        </mxCell>
        <mxCell id="j8zY-SJ1poG4v1MKxDtm-4" value="&lt;font style=&quot;font-size: 10px&quot;&gt;Données internes - Comptes rendus - Grandeurs physiques à acquérir&lt;/font&gt;" style="text;html=1;resizable=0;points=[];align=center;verticalAlign=middle;labelBackgroundColor=#ffffff;fontFamily=Comic Sans MS;fontColor=#663300;" parent="j8zY-SJ1poG4v1MKxDtm-3" vertex="1" connectable="0">
          <mxGeometry x="-0.2703" y="1" relative="1" as="geometry">
            <mxPoint x="55" y="-9.5" as="offset"/>
          </mxGeometry>
        </mxCell>
        <mxCell id="j8zY-SJ1poG4v1MKxDtm-39" value="" style="endArrow=open;html=1;strokeWidth=2;fontFamily=Comic Sans MS;fontColor=#663300;entryX=0;entryY=0.5;entryDx=0;entryDy=0;exitX=1;exitY=0.5;exitDx=0;exitDy=0;endFill=0;strokeColor=#0000CC;" parent="uo1xwZsdbgLjzLTafAWz-1" source="j8zY-SJ1poG4v1MKxDtm-32" target="j8zY-SJ1poG4v1MKxDtm-34" edge="1">
          <mxGeometry width="50" height="50" relative="1" as="geometry">
            <mxPoint x="250" y="150" as="sourcePoint"/>
            <mxPoint x="300" y="100" as="targetPoint"/>
          </mxGeometry>
        </mxCell>
        <mxCell id="j8zY-SJ1poG4v1MKxDtm-40" value="" style="endArrow=open;html=1;strokeWidth=2;fontFamily=Comic Sans MS;fontColor=#663300;entryX=0;entryY=0.5;entryDx=0;entryDy=0;exitX=1;exitY=0.5;exitDx=0;exitDy=0;endFill=0;strokeColor=#0000CC;" parent="uo1xwZsdbgLjzLTafAWz-1" edge="1">
          <mxGeometry width="50" height="50" relative="1" as="geometry">
            <mxPoint x="350" y="100" as="sourcePoint"/>
            <mxPoint x="370" y="100" as="targetPoint"/>
          </mxGeometry>
        </mxCell>
        <mxCell id="EKDbswD9UCP_sXbza6ow-0" value="" style="endArrow=none;html=1;strokeWidth=2;fontFamily=Comic Sans MS;fontColor=#663300;endFill=0;startArrow=openAsync;startFill=0;strokeColor=#FF0000;curved=1;" edge="1" parent="uo1xwZsdbgLjzLTafAWz-1">
          <mxGeometry width="50" height="50" relative="1" as="geometry">
            <mxPoint x="720" y="251" as="sourcePoint"/>
            <mxPoint x="682" y="254" as="targetPoint"/>
            <Array as="points">
              <mxPoint x="710" y="250"/>
              <mxPoint x="700" y="260"/>
              <mxPoint x="690" y="250"/>
              <mxPoint x="682" y="254"/>
            </Array>
          </mxGeometry>
        </mxCell>
        <mxCell id="EKDbswD9UCP_sXbza6ow-1" value="&lt;font style=&quot;font-size: 10px&quot;&gt;Pertes&lt;/font&gt;" style="text;html=1;resizable=0;points=[];align=center;verticalAlign=middle;labelBackgroundColor=#ffffff;fontFamily=Comic Sans MS;fontColor=#663300;" vertex="1" connectable="0" parent="uo1xwZsdbgLjzLTafAWz-1">
          <mxGeometry x="780.1213592233009" y="229.9514563106796" as="geometry">
            <mxPoint x="-76.5" y="12" as="offset"/>
          </mxGeometry>
        </mxCell>
      </root>
    </mxGraphModel>
  </diagram>
  <diagram name="GlobaleFocusTraiter" id="_x6gPuEVP7odiURXTucB">
    <mxGraphModel dx="805" dy="399" grid="1" gridSize="10" guides="1" tooltips="1" connect="1" arrows="1" fold="1" page="1" pageScale="1" pageWidth="827" pageHeight="1169" math="0" shadow="0">
      <root>
        <mxCell id="tfDa2U0KuF4Wq6h2ZM6e-0"/>
        <mxCell id="tfDa2U0KuF4Wq6h2ZM6e-1" parent="tfDa2U0KuF4Wq6h2ZM6e-0"/>
        <mxCell id="tfDa2U0KuF4Wq6h2ZM6e-2" value="" style="rounded=0;whiteSpace=wrap;html=1;strokeColor=#663300;strokeWidth=1;fillColor=none;fontFamily=Comic Sans MS;fontColor=#663300;dashed=1;" vertex="1" parent="tfDa2U0KuF4Wq6h2ZM6e-1">
          <mxGeometry x="130" y="40" width="480" height="280" as="geometry"/>
        </mxCell>
        <mxCell id="tfDa2U0KuF4Wq6h2ZM6e-3" value="&lt;br&gt;&lt;span&gt;&lt;br&gt;&lt;br&gt;&lt;span style=&quot;background-color: rgb(255 , 255 , 255)&quot;&gt;&lt;br&gt;&amp;nbsp;Chaîne&amp;nbsp;d&#39;Information&amp;nbsp;&lt;/span&gt;&lt;br&gt;&lt;/span&gt;" style="rounded=1;whiteSpace=wrap;html=1;strokeColor=#6c8ebf;strokeWidth=1;fillColor=#dae8fc;fontFamily=Comic Sans MS;" vertex="1" parent="tfDa2U0KuF4Wq6h2ZM6e-1">
          <mxGeometry x="140" y="60" width="360" height="90" as="geometry"/>
        </mxCell>
        <mxCell id="tfDa2U0KuF4Wq6h2ZM6e-4" value="&lt;br&gt;&lt;br&gt;&lt;br&gt;&lt;br&gt;&lt;span style=&quot;background-color: rgb(255 , 255 , 255)&quot;&gt;&amp;nbsp;Chaîne&amp;nbsp;de Puissance&amp;nbsp;&lt;/span&gt;" style="rounded=1;whiteSpace=wrap;html=1;strokeColor=#82b366;strokeWidth=1;fillColor=#d5e8d4;fontFamily=Comic Sans MS;" vertex="1" parent="tfDa2U0KuF4Wq6h2ZM6e-1">
          <mxGeometry x="140" y="213" width="460" height="90" as="geometry"/>
        </mxCell>
        <mxCell id="tfDa2U0KuF4Wq6h2ZM6e-5" value="" style="endArrow=open;html=1;strokeWidth=2;fontFamily=Comic Sans MS;fontColor=#663300;entryX=0;entryY=0.5;entryDx=0;entryDy=0;endFill=0;strokeColor=#0000CC;" edge="1" parent="tfDa2U0KuF4Wq6h2ZM6e-1">
          <mxGeometry width="50" height="50" relative="1" as="geometry">
            <mxPoint x="30" y="91" as="sourcePoint"/>
            <mxPoint x="160" y="91" as="targetPoint"/>
            <Array as="points">
              <mxPoint x="100" y="91"/>
            </Array>
          </mxGeometry>
        </mxCell>
        <mxCell id="tfDa2U0KuF4Wq6h2ZM6e-6" value="&lt;span style=&quot;font-size: 10px&quot;&gt;Données issues&lt;br&gt;d&#39;autres systèmes&lt;br&gt;et d&#39;interfaces H/M&lt;br&gt;&lt;/span&gt;" style="text;html=1;resizable=0;points=[];align=center;verticalAlign=bottom;labelBackgroundColor=#ffffff;fontFamily=Comic Sans MS;fontColor=#663300;labelPosition=center;verticalLabelPosition=top;" vertex="1" connectable="0" parent="tfDa2U0KuF4Wq6h2ZM6e-5">
          <mxGeometry x="-0.5224" relative="1" as="geometry">
            <mxPoint x="15.5" y="-0.5" as="offset"/>
          </mxGeometry>
        </mxCell>
        <mxCell id="tfDa2U0KuF4Wq6h2ZM6e-7" value="" style="endArrow=none;html=1;strokeWidth=2;fontFamily=Comic Sans MS;fontColor=#663300;entryX=0;entryY=0.5;entryDx=0;entryDy=0;endFill=0;exitX=0;exitY=0.5;exitDx=0;exitDy=0;startArrow=openAsync;startFill=0;strokeColor=#FF0000;" edge="1" parent="tfDa2U0KuF4Wq6h2ZM6e-1" source="tfDa2U0KuF4Wq6h2ZM6e-16">
          <mxGeometry width="50" height="50" relative="1" as="geometry">
            <mxPoint x="110" y="303" as="sourcePoint"/>
            <mxPoint x="30" y="253" as="targetPoint"/>
          </mxGeometry>
        </mxCell>
        <mxCell id="tfDa2U0KuF4Wq6h2ZM6e-8" value="&lt;font style=&quot;font-size: 10px&quot;&gt;Source d&#39;énergie&lt;/font&gt;" style="text;html=1;resizable=0;points=[];align=center;verticalAlign=bottom;labelBackgroundColor=#ffffff;fontFamily=Comic Sans MS;fontColor=#663300;labelPosition=center;verticalLabelPosition=top;" vertex="1" connectable="0" parent="tfDa2U0KuF4Wq6h2ZM6e-7">
          <mxGeometry x="-0.5224" relative="1" as="geometry">
            <mxPoint x="-56.5" y="-2" as="offset"/>
          </mxGeometry>
        </mxCell>
        <mxCell id="tfDa2U0KuF4Wq6h2ZM6e-9" value="Action" style="rounded=0;whiteSpace=wrap;html=1;strokeColor=#b85450;strokeWidth=1;fillColor=#f8cecc;fontFamily=Comic Sans MS;" vertex="1" parent="tfDa2U0KuF4Wq6h2ZM6e-1">
          <mxGeometry x="622" y="223" width="60" height="60" as="geometry"/>
        </mxCell>
        <mxCell id="tfDa2U0KuF4Wq6h2ZM6e-10" value="" style="shape=flexArrow;endArrow=none;html=1;strokeWidth=1;fontFamily=Comic Sans MS;fontColor=#663300;endFill=0;startArrow=block;fillColor=#fff2cc;strokeColor=#d6b656;" edge="1" parent="tfDa2U0KuF4Wq6h2ZM6e-1" source="tfDa2U0KuF4Wq6h2ZM6e-9">
          <mxGeometry width="50" height="50" relative="1" as="geometry">
            <mxPoint x="652" y="202.28932188134524" as="sourcePoint"/>
            <mxPoint x="652" y="183" as="targetPoint"/>
          </mxGeometry>
        </mxCell>
        <mxCell id="tfDa2U0KuF4Wq6h2ZM6e-11" value="" style="shape=flexArrow;endArrow=none;html=1;strokeWidth=1;fontFamily=Comic Sans MS;fontColor=#663300;endFill=0;startArrow=block;fillColor=#ffe6cc;strokeColor=#d79b00;" edge="1" parent="tfDa2U0KuF4Wq6h2ZM6e-1">
          <mxGeometry width="50" height="50" relative="1" as="geometry">
            <mxPoint x="652" y="322.9999999999999" as="sourcePoint"/>
            <mxPoint x="652" y="282.9999999999999" as="targetPoint"/>
          </mxGeometry>
        </mxCell>
        <mxCell id="tfDa2U0KuF4Wq6h2ZM6e-12" value="Matière&lt;br&gt;d&#39;Oeuvre&lt;br&gt;Sortante" style="text;html=1;strokeColor=none;fillColor=none;align=center;verticalAlign=middle;whiteSpace=wrap;rounded=0;fontFamily=Comic Sans MS;fontColor=#663300;" vertex="1" parent="tfDa2U0KuF4Wq6h2ZM6e-1">
          <mxGeometry x="632" y="333" width="40" height="20" as="geometry"/>
        </mxCell>
        <mxCell id="tfDa2U0KuF4Wq6h2ZM6e-13" value="Matière&lt;br&gt;d&#39;Oeuvre&lt;br&gt;Entrante" style="text;html=1;fontFamily=Comic Sans MS;fontColor=#663300;" vertex="1" parent="tfDa2U0KuF4Wq6h2ZM6e-1">
          <mxGeometry x="622" y="133" width="60" height="50" as="geometry"/>
        </mxCell>
        <mxCell id="tfDa2U0KuF4Wq6h2ZM6e-14" value="" style="endArrow=open;html=1;strokeWidth=2;fontFamily=Comic Sans MS;fontColor=#663300;exitX=1;exitY=0.25;exitDx=0;exitDy=0;endFill=0;strokeColor=#0000CC;" edge="1" parent="tfDa2U0KuF4Wq6h2ZM6e-1" source="tfDa2U0KuF4Wq6h2ZM6e-28">
          <mxGeometry width="50" height="50" relative="1" as="geometry">
            <mxPoint x="10" y="420" as="sourcePoint"/>
            <mxPoint x="720" y="90" as="targetPoint"/>
            <Array as="points">
              <mxPoint x="600" y="90"/>
            </Array>
          </mxGeometry>
        </mxCell>
        <mxCell id="tfDa2U0KuF4Wq6h2ZM6e-15" value="&lt;font style=&quot;font-size: 10px&quot;&gt;Données destinées&lt;br&gt;&amp;nbsp;à d&#39;autres systèmes&lt;br&gt;&amp;nbsp;et aux interfaces H/M&lt;/font&gt;" style="text;html=1;resizable=0;points=[];align=center;verticalAlign=middle;labelBackgroundColor=#ffffff;fontFamily=Comic Sans MS;fontColor=#663300;" vertex="1" connectable="0" parent="tfDa2U0KuF4Wq6h2ZM6e-14">
          <mxGeometry x="0.883" relative="1" as="geometry">
            <mxPoint x="-38.5" y="-28" as="offset"/>
          </mxGeometry>
        </mxCell>
        <mxCell id="tfDa2U0KuF4Wq6h2ZM6e-16" value="&lt;b&gt;ALIMENTER&lt;/b&gt;" style="rounded=0;whiteSpace=wrap;html=1;strokeColor=#d79b00;strokeWidth=1;fillColor=#ffe6cc;fontFamily=Comic Sans MS;" vertex="1" parent="tfDa2U0KuF4Wq6h2ZM6e-1">
          <mxGeometry x="160" y="233" width="90" height="40" as="geometry"/>
        </mxCell>
        <mxCell id="tfDa2U0KuF4Wq6h2ZM6e-17" value="" style="endArrow=none;html=1;strokeWidth=2;fontFamily=Comic Sans MS;fontColor=#663300;endFill=0;startArrow=openAsync;startFill=0;exitX=0;exitY=0.5;exitDx=0;exitDy=0;entryX=1;entryY=0.5;entryDx=0;entryDy=0;strokeColor=#FF0000;" edge="1" parent="tfDa2U0KuF4Wq6h2ZM6e-1" source="tfDa2U0KuF4Wq6h2ZM6e-18" target="tfDa2U0KuF4Wq6h2ZM6e-16">
          <mxGeometry width="50" height="50" relative="1" as="geometry">
            <mxPoint x="280" y="253" as="sourcePoint"/>
            <mxPoint x="250" y="252.5" as="targetPoint"/>
            <Array as="points">
              <mxPoint x="260" y="253"/>
            </Array>
          </mxGeometry>
        </mxCell>
        <mxCell id="tfDa2U0KuF4Wq6h2ZM6e-18" value="&lt;b&gt;DISTRIBUER&lt;/b&gt;" style="rounded=0;whiteSpace=wrap;html=1;strokeColor=#d79b00;strokeWidth=1;fillColor=#ffe6cc;fontFamily=Comic Sans MS;" vertex="1" parent="tfDa2U0KuF4Wq6h2ZM6e-1">
          <mxGeometry x="270" y="233" width="90" height="40" as="geometry"/>
        </mxCell>
        <mxCell id="tfDa2U0KuF4Wq6h2ZM6e-19" value="&lt;b&gt;CONVERTIR&lt;/b&gt;" style="rounded=0;whiteSpace=wrap;html=1;strokeColor=#d79b00;strokeWidth=1;fillColor=#ffe6cc;fontFamily=Comic Sans MS;" vertex="1" parent="tfDa2U0KuF4Wq6h2ZM6e-1">
          <mxGeometry x="380" y="233" width="90" height="40" as="geometry"/>
        </mxCell>
        <mxCell id="tfDa2U0KuF4Wq6h2ZM6e-20" value="&lt;b&gt;TRANSMETTRE&lt;/b&gt;" style="rounded=0;whiteSpace=wrap;html=1;strokeColor=#d79b00;strokeWidth=1;fillColor=#ffe6cc;fontFamily=Comic Sans MS;" vertex="1" parent="tfDa2U0KuF4Wq6h2ZM6e-1">
          <mxGeometry x="490" y="233" width="100" height="40" as="geometry"/>
        </mxCell>
        <mxCell id="tfDa2U0KuF4Wq6h2ZM6e-21" value="" style="endArrow=none;html=1;strokeWidth=2;fontFamily=Comic Sans MS;fontColor=#663300;endFill=0;startArrow=openAsync;startFill=0;exitX=0;exitY=0.5;exitDx=0;exitDy=0;entryX=1;entryY=0.5;entryDx=0;entryDy=0;strokeColor=#FF0000;" edge="1" parent="tfDa2U0KuF4Wq6h2ZM6e-1">
          <mxGeometry width="50" height="50" relative="1" as="geometry">
            <mxPoint x="380" y="253" as="sourcePoint"/>
            <mxPoint x="360" y="253" as="targetPoint"/>
            <Array as="points">
              <mxPoint x="370" y="253"/>
            </Array>
          </mxGeometry>
        </mxCell>
        <mxCell id="tfDa2U0KuF4Wq6h2ZM6e-22" value="" style="endArrow=none;html=1;strokeWidth=2;fontFamily=Comic Sans MS;fontColor=#663300;endFill=0;startArrow=openAsync;startFill=0;exitX=0;exitY=0.5;exitDx=0;exitDy=0;entryX=1;entryY=0.5;entryDx=0;entryDy=0;strokeColor=#FF0000;" edge="1" parent="tfDa2U0KuF4Wq6h2ZM6e-1">
          <mxGeometry width="50" height="50" relative="1" as="geometry">
            <mxPoint x="490" y="253" as="sourcePoint"/>
            <mxPoint x="470" y="253" as="targetPoint"/>
            <Array as="points">
              <mxPoint x="480" y="253"/>
            </Array>
          </mxGeometry>
        </mxCell>
        <mxCell id="tfDa2U0KuF4Wq6h2ZM6e-23" value="" style="endArrow=none;html=1;strokeWidth=2;fontFamily=Comic Sans MS;fontColor=#663300;endFill=0;startArrow=openAsync;startFill=0;exitX=0;exitY=0.5;exitDx=0;exitDy=0;strokeColor=#FF0000;" edge="1" parent="tfDa2U0KuF4Wq6h2ZM6e-1" source="tfDa2U0KuF4Wq6h2ZM6e-9">
          <mxGeometry width="50" height="50" relative="1" as="geometry">
            <mxPoint x="600" y="253" as="sourcePoint"/>
            <mxPoint x="590" y="253" as="targetPoint"/>
            <Array as="points">
              <mxPoint x="590" y="253"/>
            </Array>
          </mxGeometry>
        </mxCell>
        <mxCell id="tfDa2U0KuF4Wq6h2ZM6e-24" style="edgeStyle=orthogonalEdgeStyle;rounded=0;orthogonalLoop=1;jettySize=auto;html=1;exitX=1;exitY=0.75;exitDx=0;exitDy=0;startArrow=oval;startFill=1;endArrow=open;endFill=0;strokeWidth=2;fontFamily=Comic Sans MS;fontColor=#663300;strokeColor=#FF8000;" edge="1" parent="tfDa2U0KuF4Wq6h2ZM6e-1" source="tfDa2U0KuF4Wq6h2ZM6e-28" target="tfDa2U0KuF4Wq6h2ZM6e-18">
          <mxGeometry relative="1" as="geometry">
            <mxPoint x="360" y="150" as="targetPoint"/>
            <Array as="points">
              <mxPoint x="490" y="110"/>
              <mxPoint x="490" y="200"/>
              <mxPoint x="315" y="200"/>
            </Array>
          </mxGeometry>
        </mxCell>
        <mxCell id="tfDa2U0KuF4Wq6h2ZM6e-25" value="&lt;font style=&quot;font-size: 10px&quot;&gt;Ordres&lt;/font&gt;" style="text;html=1;resizable=0;points=[];align=center;verticalAlign=middle;labelBackgroundColor=#ffffff;fontFamily=Comic Sans MS;fontColor=#663300;" vertex="1" connectable="0" parent="tfDa2U0KuF4Wq6h2ZM6e-24">
          <mxGeometry x="-0.1934" y="-22" relative="1" as="geometry">
            <mxPoint x="-76.5" y="12" as="offset"/>
          </mxGeometry>
        </mxCell>
        <mxCell id="tfDa2U0KuF4Wq6h2ZM6e-26" value="&lt;b&gt;ACQUERIR&lt;/b&gt;" style="rounded=0;whiteSpace=wrap;html=1;strokeColor=#d79b00;strokeWidth=1;fillColor=#ffe6cc;fontFamily=Comic Sans MS;" vertex="1" parent="tfDa2U0KuF4Wq6h2ZM6e-1">
          <mxGeometry x="160" y="80" width="90" height="40" as="geometry"/>
        </mxCell>
        <mxCell id="tfDa2U0KuF4Wq6h2ZM6e-27" value="&lt;b&gt;TRAITER&lt;/b&gt;" style="rounded=0;whiteSpace=wrap;html=1;strokeColor=#d79b00;strokeWidth=1;fillColor=#ffe6cc;fontFamily=Comic Sans MS;" vertex="1" parent="tfDa2U0KuF4Wq6h2ZM6e-1">
          <mxGeometry x="270" y="80" width="80" height="40" as="geometry"/>
        </mxCell>
        <mxCell id="tfDa2U0KuF4Wq6h2ZM6e-28" value="&lt;b&gt;COMMUNIQUER&lt;/b&gt;" style="rounded=0;whiteSpace=wrap;html=1;strokeColor=#d79b00;strokeWidth=1;fillColor=#ffe6cc;fontFamily=Comic Sans MS;" vertex="1" parent="tfDa2U0KuF4Wq6h2ZM6e-1">
          <mxGeometry x="370" y="80" width="110" height="40" as="geometry"/>
        </mxCell>
        <mxCell id="tfDa2U0KuF4Wq6h2ZM6e-29" style="edgeStyle=orthogonalEdgeStyle;rounded=0;orthogonalLoop=1;jettySize=auto;html=1;exitX=0;exitY=0.75;exitDx=0;exitDy=0;startArrow=open;startFill=0;endArrow=oval;endFill=1;strokeWidth=2;fontFamily=Comic Sans MS;fontColor=#663300;labelPosition=center;verticalLabelPosition=top;align=center;verticalAlign=bottom;strokeColor=#009900;" edge="1" parent="tfDa2U0KuF4Wq6h2ZM6e-1" source="tfDa2U0KuF4Wq6h2ZM6e-26">
          <mxGeometry relative="1" as="geometry">
            <mxPoint x="537" y="210" as="targetPoint"/>
            <mxPoint x="157" y="110" as="sourcePoint"/>
            <Array as="points">
              <mxPoint x="147" y="110"/>
              <mxPoint x="147" y="170"/>
              <mxPoint x="537" y="170"/>
            </Array>
          </mxGeometry>
        </mxCell>
        <mxCell id="tfDa2U0KuF4Wq6h2ZM6e-30" value="&lt;font style=&quot;font-size: 10px&quot;&gt;Données internes - Comptes rendus - Grandeurs physiques à acquérir&lt;/font&gt;" style="text;html=1;resizable=0;points=[];align=center;verticalAlign=middle;labelBackgroundColor=#ffffff;fontFamily=Comic Sans MS;fontColor=#663300;" vertex="1" connectable="0" parent="tfDa2U0KuF4Wq6h2ZM6e-29">
          <mxGeometry x="-0.2703" y="1" relative="1" as="geometry">
            <mxPoint x="55" y="-9.5" as="offset"/>
          </mxGeometry>
        </mxCell>
        <mxCell id="tfDa2U0KuF4Wq6h2ZM6e-31" value="" style="endArrow=open;html=1;strokeWidth=2;fontFamily=Comic Sans MS;fontColor=#663300;entryX=0;entryY=0.5;entryDx=0;entryDy=0;exitX=1;exitY=0.5;exitDx=0;exitDy=0;endFill=0;strokeColor=#0000CC;" edge="1" parent="tfDa2U0KuF4Wq6h2ZM6e-1" source="tfDa2U0KuF4Wq6h2ZM6e-26" target="tfDa2U0KuF4Wq6h2ZM6e-27">
          <mxGeometry width="50" height="50" relative="1" as="geometry">
            <mxPoint x="250" y="150" as="sourcePoint"/>
            <mxPoint x="300" y="100" as="targetPoint"/>
          </mxGeometry>
        </mxCell>
        <mxCell id="tfDa2U0KuF4Wq6h2ZM6e-32" value="" style="endArrow=open;html=1;strokeWidth=2;fontFamily=Comic Sans MS;fontColor=#663300;entryX=0;entryY=0.5;entryDx=0;entryDy=0;exitX=1;exitY=0.5;exitDx=0;exitDy=0;endFill=0;strokeColor=#0000CC;" edge="1" parent="tfDa2U0KuF4Wq6h2ZM6e-1">
          <mxGeometry width="50" height="50" relative="1" as="geometry">
            <mxPoint x="350" y="100" as="sourcePoint"/>
            <mxPoint x="370" y="100" as="targetPoint"/>
          </mxGeometry>
        </mxCell>
        <mxCell id="tfDa2U0KuF4Wq6h2ZM6e-33" value="" style="endArrow=none;html=1;strokeWidth=2;fontFamily=Comic Sans MS;fontColor=#663300;endFill=0;startArrow=openAsync;startFill=0;strokeColor=#FF0000;curved=1;" edge="1" parent="tfDa2U0KuF4Wq6h2ZM6e-1">
          <mxGeometry width="50" height="50" relative="1" as="geometry">
            <mxPoint x="720" y="251" as="sourcePoint"/>
            <mxPoint x="682" y="254" as="targetPoint"/>
            <Array as="points">
              <mxPoint x="710" y="250"/>
              <mxPoint x="700" y="260"/>
              <mxPoint x="690" y="250"/>
              <mxPoint x="682" y="254"/>
            </Array>
          </mxGeometry>
        </mxCell>
        <mxCell id="tfDa2U0KuF4Wq6h2ZM6e-35" value="&lt;font style=&quot;font-size: 10px&quot;&gt;Pertes&lt;/font&gt;" style="text;html=1;resizable=0;points=[];align=center;verticalAlign=middle;labelBackgroundColor=#ffffff;fontFamily=Comic Sans MS;fontColor=#663300;" vertex="1" connectable="0" parent="tfDa2U0KuF4Wq6h2ZM6e-1">
          <mxGeometry x="780.1213592233009" y="229.9514563106796" as="geometry">
            <mxPoint x="-76.5" y="12" as="offset"/>
          </mxGeometry>
        </mxCell>
        <mxCell id="joMSUl86frINXFhLXHCZ-0" value="" style="ellipse;whiteSpace=wrap;html=1;fillColor=none;strokeWidth=4;strokeColor=#FF8000;" vertex="1" parent="tfDa2U0KuF4Wq6h2ZM6e-1">
          <mxGeometry x="250" y="75" width="120" height="50" as="geometry"/>
        </mxCell>
      </root>
    </mxGraphModel>
  </diagram>
</mxfile>
